<svg id="svg" version="1.1" xmlns="http://www.w3.org/2000/svg" xmlns:xlink="http://www.w3.org/1999/xlink" width="400" height="401.25" viewBox="0, 0, 400,401.25"><g id="svgg"><path id="path0" d="M190.313 1.127 C 170.818 3.727,152.951 15.301,142.561 32.059 C 139.714 36.653,138.536 39.629,141.190 35.525 C 155.402 13.550,196.575 8.053,215.663 25.582 C 239.829 47.773,230.541 95.691,188.566 165.375 C 155.179 220.803,137.106 268.543,134.289 308.750 L 133.906 314.219 133.750 307.656 L 133.594 301.094 133.163 305.000 C 132.579 310.287,132.320 334.560,132.791 339.736 C 137.234 388.518,191.287 416.310,233.442 391.489 C 240.512 387.325,250.982 377.976,252.606 374.375 C 252.800 373.945,253.452 372.891,254.056 372.031 L 255.153 370.469 253.748 371.661 C 244.098 379.851,226.499 373.355,213.817 356.922 C 199.231 338.022,195.751 313.007,202.376 274.688 C 206.302 251.978,212.361 234.550,231.329 191.406 C 235.958 180.879,237.544 177.212,242.349 165.938 C 257.374 130.678,261.454 118.115,264.374 98.125 C 267.417 77.287,267.224 60.704,263.801 48.900 C 254.590 17.141,223.207 -3.261,190.313 1.127 " stroke="none" fill="#cb6be3" fill-rule="evenodd"></path><path id="path1" d="M327.188 135.510 C 283.296 139.569,244.493 174.627,219.839 232.500 C 201.770 274.913,196.248 324.477,207.169 346.209 C 218.937 369.627,242.672 382.010,254.453 370.877 C 255.898 369.512,255.926 369.655,254.581 371.521 C 253.032 373.669,252.902 373.971,253.845 373.229 C 257.433 370.407,262.531 359.788,264.651 350.720 C 266.373 343.357,266.339 344.202,266.478 305.234 C 266.588 274.140,266.669 269.063,267.053 269.063 C 267.299 269.063,267.500 268.922,267.500 268.750 C 267.500 268.544,278.881 268.437,301.016 268.436 C 321.925 268.436,335.883 268.312,338.125 268.107 C 368.370 265.346,392.845 242.716,398.099 212.656 C 398.429 210.766,398.727 209.359,398.761 209.531 C 398.994 210.722,399.342 206.489,399.357 202.282 C 399.497 163.060,365.855 131.935,327.188 135.510 " stroke="none" fill="#eeeeee" fill-rule="evenodd"></path><path id="path2" d="M179.912 15.349 C 165.450 16.742,150.558 23.905,143.277 32.969 C 139.732 37.383,136.596 45.394,134.596 55.151 C 133.973 58.186,133.950 59.418,133.840 95.526 L 133.726 132.771 97.410 132.897 C 57.885 133.034,59.555 132.963,51.563 134.855 C 29.851 139.993,11.744 156.512,4.290 177.979 C -9.895 218.831,17.685 262.227,60.580 266.549 C 62.617 266.754,76.776 266.875,98.783 266.875 L 133.750 266.875 133.786 283.047 C 133.805 291.941,133.911 301.047,134.020 303.281 L 134.219 307.344 134.459 304.531 C 137.639 267.266,156.358 218.688,187.503 166.875 C 215.297 120.637,227.392 89.817,228.341 62.813 C 229.453 31.178,210.313 12.419,179.912 15.349 " stroke="none" fill="#2c348c" fill-rule="evenodd"></path><path id="path3" d="M180.863 15.221 C 181.252 15.296,181.814 15.293,182.113 15.215 C 182.412 15.136,182.094 15.075,181.406 15.079 C 180.719 15.082,180.474 15.146,180.863 15.221 M189.301 15.221 C 189.689 15.296,190.252 15.293,190.551 15.215 C 190.849 15.136,190.531 15.075,189.844 15.079 C 189.156 15.082,188.912 15.146,189.301 15.221 M216.406 26.563 C 217.427 27.594,218.332 28.438,218.418 28.438 C 218.504 28.438,217.739 27.594,216.719 26.563 C 215.698 25.531,214.793 24.688,214.707 24.688 C 214.621 24.688,215.386 25.531,216.406 26.563 M228.198 54.375 C 228.198 54.977,228.262 55.223,228.340 54.922 C 228.419 54.621,228.419 54.129,228.340 53.828 C 228.262 53.527,228.198 53.773,228.198 54.375 M228.516 60.156 C 228.520 60.844,228.584 61.088,228.659 60.699 C 228.733 60.311,228.730 59.748,228.652 59.449 C 228.574 59.151,228.513 59.469,228.516 60.156 M228.204 66.406 C 228.207 67.094,228.271 67.338,228.346 66.949 C 228.421 66.561,228.418 65.998,228.340 65.699 C 228.261 65.401,228.200 65.719,228.204 66.406 M133.848 307.188 C 133.845 312.116,133.907 313.377,134.053 311.406 C 134.168 309.859,134.169 306.695,134.057 304.375 C 133.872 300.572,133.851 300.850,133.848 307.188 " stroke="none" fill="#6a4cb0" fill-rule="evenodd"></path><path id="path4" d="M218.906 362.813 C 219.927 363.844,220.832 364.688,220.918 364.688 C 221.004 364.688,220.239 363.844,219.219 362.813 C 218.198 361.781,217.293 360.938,217.207 360.938 C 217.121 360.938,217.886 361.781,218.906 362.813 M241.641 375.215 C 241.941 375.294,242.434 375.294,242.734 375.215 C 243.035 375.137,242.789 375.073,242.188 375.073 C 241.586 375.073,241.340 375.137,241.641 375.215 M244.301 375.221 C 244.689 375.296,245.252 375.293,245.551 375.215 C 245.849 375.136,245.531 375.075,244.844 375.079 C 244.156 375.082,243.912 375.146,244.301 375.221 " stroke="none" fill="#d488ec" fill-rule="evenodd"></path></g></svg>