<?xml version="1.0" encoding="UTF-8"?>
<!DOCTYPE svg PUBLIC "-//W3C//DTD SVG 1.1//EN" "http://www.w3.org/Graphics/SVG/1.1/DTD/svg11.dtd">
<!-- Creator: CorelDRAW -->
<svg xmlns="http://www.w3.org/2000/svg" xml:space="preserve" width="4.69744in" height="1.08259in" version="1.1" style="shape-rendering:geometricPrecision; text-rendering:geometricPrecision; image-rendering:optimizeQuality; fill-rule:evenodd; clip-rule:evenodd"
viewBox="0 0 4689.49 1080.76"
 xmlns:xlink="http://www.w3.org/1999/xlink"
 xmlns:xodm="http://www.corel.com/coreldraw/odm/2003">
 <defs>
  <style type="text/css">
   <![CDATA[
    .fil0 {fill:red}
    .fil1 {fill:black}
    .fil3 {fill:#666666;fill-rule:nonzero}
    .fil2 {fill:black;fill-rule:nonzero}
   ]]>
  </style>
 </defs>
 <g id="Layer_x0020_1">
  <metadata id="CorelCorpID_0Corel-Layer"/>
  <path class="fil0" d="M76.54 417.94l4.71 58.51c9.94,47.77 25.97,60.99 37.41,82.38 11.62,21.72 26.47,29.14 43.58,46.28 55.11,55.22 186.12,72.93 259.3,38.03l94.23 -52.19c6.65,-4.46 18.7,-19.89 23.16,-26.76 7.6,-11.7 11.85,-18.02 20.89,-29.02 38.99,-47.41 32.92,-54.75 52.7,-93.72 16.49,-32.5 11.39,-43.46 17.53,-82.45 7.5,-47.58 -27.48,-116.22 -50.5,-144.58 -46.11,-56.79 -93.15,-79.24 -165.42,-67.87 -22.39,3.53 -40.55,4.25 -57.23,15.98 -6.65,4.68 -9.34,5.94 -16.04,10.59 -39.45,27.39 -70,76 -64.87,124.98 4.68,44.61 30.41,65.17 71.21,78.77 26.62,8.87 65.98,0.2 88.72,11.11 -5.3,7.23 -14.9,13.99 -25.32,17.94 -31.64,12 -59.21,28.64 -111.11,28.64 -26.56,0 -83.19,-22.37 -83.19,-76.54 0,-62.78 20.19,-102.19 55.59,-144.07 13.12,-15.52 3.88,-10.1 28.4,-34.83 6.38,-6.44 8.74,-9.54 15.96,-13.99l18.46 -11.48c33.91,-24.47 42.26,-31.54 77.77,-52.01 5.8,-3.34 15.35,-7.94 21.43,-11.85 15.49,-9.95 4.23,-5.09 12,-21.28 -27.54,0 -126.94,23.41 -147.42,32.28 -12.43,5.38 -16.92,9.13 -27.92,15.34 -5.44,3.07 -9.97,5.54 -15.03,8.26 -6.3,3.38 -9.92,4.49 -15.75,7.55 -48.51,25.48 -79.58,73.36 -109.55,113.4 -27.16,36.29 -53.7,121.95 -53.7,172.58z"/>
  <path class="fil1" d="M9.98 35.26c-3.86,8.05 -6.66,14.56 -6.66,26.62l0 299.49c0,13.54 5.25,17.9 13.31,23.29 26.01,-17.42 26.72,-64.8 48.73,-107.67l19.57 -37c3.12,-5.66 4.76,-7.02 7.98,-11.98 68.93,-106.36 91.15,-113.08 186.39,-166.34 6.54,-3.66 16.29,-11.59 23.51,-16.42 -16.97,-25.34 -49.25,-15.41 -77.04,-13.78 -13.46,0.79 -13.39,-2.77 -29.47,-3.1 -28.89,-0.57 -14.26,7.61 -60.79,1.15 -16.71,-2.32 -111.88,2.56 -125.54,5.75z"/>
  <path class="fil0" d="M442.58 684.16c27.62,13.25 185.53,6.65 226.28,6.65 26.51,0 19.98,-42.84 19.97,-59.9 -0.02,-26.5 -0.57,-53.62 -0.09,-80.04l0.18 -113.05c0.19,-22.5 1.19,-21.52 -6.74,-36.51 -19.46,1.62 -16.47,6.1 -29.95,33.28 -10.2,20.57 -60.77,107.64 -75.72,120.61l-32.46 30.77c-5.65,5.55 -2.79,1.72 -8.1,8.54l-50.67 49.16c-5.03,2.83 -5.05,2.41 -10.77,5.86 -14.69,8.85 -27.3,17.31 -31.92,34.63z"/>
  <path class="fil0" d="M685.5 224.94l4.34 -106.98c1.46,-99.8 0.81,-86.02 -90.86,-86.02 -38.29,0 -41.17,13.96 -46.8,46.63 -2.42,14 -4.34,24.78 6.14,33.92 26.63,23.22 69.1,17.56 102.8,86.92 8.77,18.05 1.88,25.03 24.38,25.54z"/>
  <path class="fil0" d="M-0 640.9c0,59.19 41.33,46.59 109.81,46.59 11.47,0 12.88,-2.46 23.29,-3.33 0,-17.6 0.02,-4.96 3.33,-9.98 -3.77,-14.09 -15.67,-21.55 -27.64,-28.93 -9.74,-6 -27.29,-17.85 -34.88,-25.02 -26.24,-24.82 -25.89,-42.58 -57.28,-59.19 -9.04,13.49 -12.04,10.2 -13.3,33.29 -0.98,18.07 -3.34,27.38 -3.34,46.57z"/>
  <path class="fil2" d="M1039.45 619.68l12.11 75.49c-24.89,5.02 -47.25,7.61 -66.76,7.61 -32.12,0 -57,-4.86 -74.83,-14.74 -17.66,-9.88 -30.1,-22.68 -37.33,-38.72 -7.23,-16.04 -10.76,-49.74 -10.76,-101.09l0 -290.64 -65.58 0 0 -66.1 65.58 0 0 -124.75 88.79 -51.36 0 176.1 88.79 0 0 66.1 -88.79 0 0 295.5c0,24.46 1.51,40.18 4.7,47.14 3.03,6.97 8.07,12.47 15.14,16.69 7.06,4.05 17.15,6.15 30.27,6.15 9.76,0 22.7,-1.13 38.68,-3.4z"/>
  <path id="_1" class="fil2" d="M1126.05 695.98l0 -504.49 79.71 0 0 77.28c20.34,-35.81 39.18,-59.46 56.5,-70.8 17.32,-11.5 36.32,-17.18 57.01,-17.18 29.93,0 60.37,9.08 91.31,27.06l-31.61 78.9c-21.53,-11.67 -43.05,-17.5 -64.57,-17.5 -19.34,0 -36.66,5.67 -51.96,16.85 -15.3,11.18 -26.23,26.73 -32.79,46.66 -9.92,30.3 -14.8,63.51 -14.8,99.63l0 263.58 -88.79 0z"/>
  <path id="_2" class="fil2" d="M1805.07 695.98l0 -75.01c-40.69,57.19 -95.85,85.7 -165.64,85.7 -30.77,0 -59.53,-5.67 -86.26,-17.01 -26.74,-11.5 -46.58,-25.76 -59.53,-42.93 -12.95,-17.33 -22.03,-38.4 -27.25,-63.35 -3.53,-16.85 -5.38,-43.42 -5.38,-79.71l0 -312.19 88.79 0 0 279.14c0,44.55 1.85,74.69 5.38,90.08 5.55,22.52 17.32,40.01 35.48,52.81 17.99,12.8 40.19,19.28 66.76,19.28 26.57,0 51.46,-6.48 74.66,-19.6 23.21,-13.12 39.68,-31.1 49.44,-53.63 9.59,-22.52 14.46,-55.41 14.46,-98.34l0 -269.74 88.79 0 0 504.49 -79.71 0z"/>
  <path id="_3" class="fil2" d="M2381.35 532.68l91.81 11.66c-14.29,51.36 -41.03,91.37 -80.04,119.73 -39.01,28.35 -88.79,42.6 -149.49,42.6 -76.35,0 -136.88,-22.68 -181.62,-68.04 -44.73,-45.2 -67.09,-108.87 -67.09,-190.68 0,-84.57 22.53,-150.34 67.77,-197 45.23,-46.82 103.92,-70.15 176.06,-70.15 69.79,0 126.79,22.84 171.02,68.69 44.22,45.85 66.42,110.32 66.42,193.44 0,5.02 -0.17,12.64 -0.5,22.68l-389.96 0c3.36,55.24 19.51,97.69 48.77,127.01 29.09,29.32 65.58,44.07 109.14,44.07 32.45,0 60.2,-8.27 83.07,-24.79 23.04,-16.52 41.2,-42.93 54.65,-79.22zm-290.58 -137.06l291.59 0c-3.87,-42.45 -15.14,-74.2 -33.47,-95.42 -28.08,-32.89 -64.74,-49.41 -109.64,-49.41 -40.69,0 -74.83,13.12 -102.58,39.37 -27.58,26.24 -42.88,61.4 -45.91,105.47z"/>
  <path id="_4" class="fil2" d="M2667.05 695.98l-82.73 0 0 -695.98 88.79 0 0 248.36c37.5,-45.04 85.26,-67.56 143.44,-67.56 32.12,0 62.72,6.16 91.48,18.63 28.75,12.47 52.29,30.13 70.96,52.65 18.5,22.68 33.13,49.9 43.55,81.81 10.6,31.75 15.81,65.94 15.81,102.23 0,86.19 -22.2,152.93 -66.43,199.92 -44.39,47.14 -97.53,70.63 -159.58,70.63 -61.71,0 -110.14,-24.78 -145.29,-74.2l0 63.51zm-1.01 -255.97c0,60.27 8.58,103.85 25.56,130.74 27.91,43.91 65.58,65.94 113.17,65.94 38.84,0 72.31,-16.2 100.39,-48.6 28.25,-32.4 42.37,-80.68 42.37,-144.84 0,-65.77 -13.45,-114.22 -40.53,-145.48 -27.07,-31.27 -59.86,-46.98 -98.2,-46.98 -38.84,0 -72.31,16.2 -100.39,48.6 -28.25,32.4 -42.38,79.22 -42.38,140.62z"/>
  <path id="_5" class="fil2" d="M3707.61 695.98l0 -504.49 79.71 0 0 71.61c38.34,-54.92 93.83,-82.3 166.31,-82.3 31.62,0 60.54,5.51 86.94,16.37 26.4,10.85 46.24,25.27 59.36,42.93 13.12,17.66 22.37,38.72 27.58,63.02 3.2,15.88 4.88,43.58 4.88,83.11l0 309.76 -88.79 0 0 -306.52c0,-34.83 -3.36,-60.91 -10.26,-78.08 -6.89,-17.18 -19.17,-30.94 -36.65,-41.32 -17.49,-10.2 -38.17,-15.39 -61.71,-15.39 -37.67,0 -70.13,11.5 -97.53,34.67 -27.41,23 -41.03,66.91 -41.03,131.39l0 275.25 -88.79 0z"/>
  <path id="_6" class="fil2" d="M4606.75 695.98l0 -63.99c-33.13,49.74 -81.89,74.68 -146.3,74.68 -41.7,0 -80.04,-11.01 -114.85,-33.21 -34.98,-22.03 -62.05,-52.97 -81.39,-92.5 -19.17,-39.69 -28.76,-85.22 -28.76,-136.73 0,-50.22 8.75,-95.75 26.07,-136.74 17.49,-40.82 43.55,-72.26 78.36,-93.96 34.64,-21.87 73.65,-32.73 116.53,-32.73 31.61,0 59.69,6.48 84.25,19.28 24.55,12.8 44.56,29.65 60.04,50.22l0 -250.3 88.79 0 0 695.98 -82.73 0zm-280.49 -251.6c0,64.48 14.13,112.6 42.55,144.51 28.25,31.91 61.71,47.79 100.22,47.79 38.84,0 71.8,-15.23 99.04,-45.69 27.07,-30.46 40.69,-76.96 40.69,-139.49 0,-68.69 -13.79,-119.24 -41.54,-151.48 -27.58,-32.24 -61.71,-48.28 -102.24,-48.28 -39.52,0 -72.48,15.39 -99.04,46.33 -26.4,30.94 -39.68,79.71 -39.68,146.3z"/>
  <path id="_7" class="fil3" d="M3113.17 443.74c0,-93.15 26.91,-162.17 80.89,-207.05 44.9,-37.26 99.89,-55.89 164.63,-55.89 71.8,0 130.66,22.68 176.4,68.05 45.57,45.2 68.44,107.9 68.44,187.76 0,64.8 -10.09,115.67 -30.26,152.77 -20.18,37.1 -49.61,65.94 -88.29,86.51 -38.51,20.58 -80.71,30.78 -126.29,30.78 -73.32,0 -132.51,-22.52 -177.74,-67.72 -45.23,-45.2 -67.77,-110.33 -67.77,-195.22zm90.81 0.16c0,64.48 14.63,112.76 43.89,144.67 29.43,32.08 66.26,48.12 110.82,48.12 44.06,0 80.72,-16.04 110.14,-48.28 29.26,-32.24 43.89,-81.33 43.89,-147.27 0,-62.21 -14.79,-109.35 -44.22,-141.27 -29.43,-32.08 -66.09,-48.12 -109.81,-48.12 -44.56,0 -81.39,15.87 -110.82,47.79 -29.26,31.92 -43.89,80.03 -43.89,144.35z"/>
  <path class="fil2" d="M3.33 1076.65l0 -226.51 87.76 0c33.25,0 54.89,1.11 64.98,3.38 15.52,3.43 28.52,10.81 38.99,22.19 10.47,11.39 15.71,26.1 15.71,44.13 0,13.92 -3.03,25.57 -9.02,35.06 -6.06,9.49 -13.69,16.92 -22.96,22.36 -9.28,5.38 -18.74,8.96 -28.33,10.7 -13.06,2.16 -31.93,3.27 -56.66,3.27l-35.59 0 0 85.41 -54.89 0zm54.89 -188.23l0 64.54 29.84 0c21.51,0 35.84,-1.21 43.1,-3.58 7.25,-2.37 12.93,-6.06 17.03,-11.18 4.1,-5.06 6.18,-10.91 6.18,-17.66 0,-8.28 -2.9,-15.08 -8.64,-20.46 -5.81,-5.38 -13.06,-8.75 -21.95,-10.12 -6.5,-1 -19.56,-1.53 -39.24,-1.53l-26.31 0z"/>
  <path id="_1_7" class="fil2" d="M255.82 1076.65l0 -226.51 115.27 0c28.96,0 50.03,2.06 63.15,6.12 13.19,4.06 23.66,11.28 31.55,21.67 7.89,10.44 11.86,22.3 11.86,35.7 0,17.03 -5.93,31.05 -17.86,42.13 -11.92,11.08 -29.72,18.03 -53.44,20.93 11.8,5.75 21.51,12.07 29.15,18.98 7.7,6.91 18.04,19.19 31.04,36.8l33.06 44.18 -65.42 0 -39.24 -49.46c-14.07,-17.56 -23.72,-28.63 -28.96,-33.22 -5.17,-4.53 -10.66,-7.7 -16.46,-9.39 -5.87,-1.69 -15.08,-2.53 -27.7,-2.53l-11.1 0 0 94.59 -54.89 0zm54.89 -130.65l40.5 0c26.25,0 42.59,-0.95 49.15,-2.79 6.5,-1.85 11.67,-5.06 15.33,-9.6 3.73,-4.54 5.55,-10.23 5.55,-17.03 0,-7.64 -2.46,-13.76 -7.32,-18.51 -4.86,-4.69 -11.73,-7.64 -20.57,-8.86 -4.48,-0.53 -17.79,-0.79 -39.93,-0.79l-42.71 0 0 57.58z"/>
  <path id="_2_8" class="fil2" d="M517.84 964.76c0,-23.09 4.16,-42.49 12.43,-58.21 6.12,-11.55 14.57,-21.93 25.24,-31.11 10.66,-9.17 22.34,-15.97 35.02,-20.46 16.9,-5.96 36.41,-8.96 58.49,-8.96 40,0 71.93,10.39 95.96,31.11 23.98,20.77 35.97,49.61 35.97,86.57 0,36.64 -11.93,65.33 -35.71,86 -23.79,20.72 -55.65,31.05 -95.46,31.05 -40.31,0 -72.43,-10.28 -96.21,-30.9 -23.78,-20.56 -35.71,-48.93 -35.71,-85.1zm56.4 -1.53c0,25.68 7.13,45.14 21.33,58.42 14.2,13.23 32.24,19.88 54.07,19.88 21.89,0 39.81,-6.59 53.88,-19.72 14.01,-13.18 21.02,-32.9 21.02,-59.21 0,-25.99 -6.82,-45.4 -20.5,-58.15 -13.63,-12.81 -31.74,-19.19 -54.39,-19.19 -22.59,0 -40.82,6.49 -54.64,19.4 -13.82,12.97 -20.76,32.48 -20.76,58.58z"/>
  <path id="_3_9" class="fil2" d="M823.65 1076.65l0 -226.51 87.76 0c33.25,0 54.89,1.11 64.98,3.38 15.52,3.43 28.52,10.81 38.99,22.19 10.47,11.39 15.71,26.1 15.71,44.13 0,13.92 -3.03,25.57 -9.02,35.06 -6.06,9.49 -13.69,16.92 -22.96,22.36 -9.28,5.38 -18.74,8.96 -28.33,10.7 -13.06,2.16 -31.92,3.27 -56.66,3.27l-35.59 0 0 85.41 -54.89 0zm54.89 -188.23l0 64.54 29.84 0c21.51,0 35.84,-1.21 43.09,-3.58 7.26,-2.37 12.93,-6.06 17.03,-11.18 4.1,-5.06 6.18,-10.91 6.18,-17.66 0,-8.28 -2.9,-15.08 -8.65,-20.46 -5.8,-5.38 -13.05,-8.75 -21.95,-10.12 -6.5,-1 -19.56,-1.53 -39.24,-1.53l-26.31 0z"/>
  <polygon id="_4_10" class="fil2" points="1076.14,1076.65 1076.14,850.14 1276.78,850.14 1276.78,888.41 1131.03,888.41 1131.03,938.71 1266.55,938.71 1266.55,977 1131.03,977 1131.03,1038.37 1282.07,1038.37 1282.07,1076.65 "/>
  <path id="_5_11" class="fil2" d="M1328.64 1076.65l0 -226.51 115.27 0c28.95,0 50.03,2.06 63.15,6.12 13.19,4.06 23.66,11.28 31.55,21.67 7.88,10.44 11.86,22.3 11.86,35.7 0,17.03 -5.93,31.05 -17.86,42.13 -11.92,11.08 -29.71,18.03 -53.44,20.93 11.8,5.75 21.51,12.07 29.15,18.98 7.69,6.91 18.04,19.19 31.04,36.8l33.06 44.18 -65.42 0 -39.24 -49.46c-14.07,-17.56 -23.72,-28.63 -28.96,-33.22 -5.17,-4.53 -10.66,-7.7 -16.46,-9.39 -5.87,-1.69 -15.08,-2.53 -27.7,-2.53l-11.11 0 0 94.59 -54.89 0zm54.89 -130.65l40.51 0c26.25,0 42.59,-0.95 49.15,-2.79 6.49,-1.85 11.67,-5.06 15.32,-9.6 3.73,-4.54 5.56,-10.23 5.56,-17.03 0,-7.64 -2.46,-13.76 -7.32,-18.51 -4.86,-4.69 -11.74,-7.64 -20.57,-8.86 -4.48,-0.53 -17.79,-0.79 -39.94,-0.79l-42.71 0 0 57.58z"/>
  <polygon id="_6_12" class="fil2" points="1662.96,1076.65 1662.96,888.41 1582.71,888.41 1582.71,850.14 1797.73,850.14 1797.73,888.41 1717.85,888.41 1717.85,1076.65 "/>
  <polygon id="_7_13" class="fil2" points="1904.42,1076.65 1904.42,981.32 1805.04,850.14 1869.21,850.14 1933.31,939.82 1995.71,850.14 2058.68,850.14 1959.31,981.63 1959.31,1076.65 "/>
  <path id="_8" class="fil2" d="M2414.2 1076.65l-59.12 0 -23.41 -51.57 -108.71 0 -22.52 51.57 -58.05 0 105.24 -226.51 57.98 0 108.58 226.51zm-100.32 -89.84l-37.67 -83.83 -36.59 83.83 74.26 0z"/>
  <polygon id="_9" class="fil2" points="2443.41,1076.65 2443.41,850.14 2496.53,850.14 2608.08,1001.93 2608.08,850.14 2658.81,850.14 2658.81,1076.65 2603.98,1076.65 2494.14,927.75 2494.14,1076.65 "/>
  <path id="_10" class="fil2" d="M2716.79 850.14l99.81 0c22.52,0 39.68,1.42 51.49,4.32 15.84,3.9 29.46,10.86 40.75,20.88 11.36,9.96 19.94,22.19 25.87,36.69 5.87,14.45 8.83,32.32 8.83,53.52 0,18.67 -2.77,34.69 -8.33,48.19 -6.75,16.5 -16.4,29.84 -28.96,40.02 -9.46,7.75 -22.27,13.76 -38.36,18.08 -12.05,3.22 -28.14,4.8 -48.33,4.8l-102.77 0 0 -226.51zm54.89 38.28l0 149.95 40.69 0c15.21,0 26.19,-0.74 32.94,-2.16 8.9,-1.85 16.22,-5.01 22.02,-9.44 5.87,-4.43 10.6,-11.7 14.26,-21.83 3.72,-10.12 5.55,-23.99 5.55,-41.5 0,-17.51 -1.83,-30.9 -5.55,-40.28 -3.66,-9.39 -8.83,-16.66 -15.46,-21.94 -6.63,-5.22 -15.02,-8.8 -25.24,-10.65 -7.57,-1.42 -22.52,-2.16 -44.73,-2.16l-24.48 0z"/>
  <polygon id="_11" class="fil2" points="3096.85,1076.65 3096.85,852.03 3151.74,852.03 3151.74,1038.37 3287.64,1038.37 3287.64,1076.65 "/>
  <polygon id="_12" class="fil2" points="3326.57,1076.65 3326.57,850.14 3527.2,850.14 3527.2,888.41 3381.46,888.41 3381.46,938.71 3516.98,938.71 3516.98,977 3381.46,977 3381.46,1038.37 3532.5,1038.37 3532.5,1076.65 "/>
  <polygon id="_13" class="fil2" points="3577.17,1076.65 3577.17,850.14 3632.06,850.14 3632.06,1076.65 "/>
  <path id="_14" class="fil2" d="M3669.86 1003.25l53.37 -4.43c3.22,14.92 9.66,25.84 19.44,32.85 9.77,7.01 22.96,10.49 39.55,10.49 17.55,0 30.79,-3.11 39.68,-9.33 8.9,-6.22 13.38,-13.5 13.38,-21.83 0,-5.38 -1.89,-9.91 -5.62,-13.71 -3.72,-3.74 -10.28,-7.01 -19.62,-9.75 -6.38,-1.9 -20.88,-5.17 -43.6,-9.91 -29.21,-6.12 -49.72,-13.6 -61.52,-22.52 -16.59,-12.49 -24.86,-27.73 -24.86,-45.71 0,-11.55 3.91,-22.41 11.67,-32.48 7.83,-10.07 19.05,-17.71 33.75,-22.99 14.7,-5.27 32.37,-7.91 53.19,-7.91 33.88,0 59.43,6.27 76.53,18.87 17.16,12.6 26.12,29.37 27.01,50.41l-54.89 1.58c-2.33,-11.71 -7.32,-20.09 -14.95,-25.21 -7.64,-5.11 -19.12,-7.7 -34.39,-7.7 -15.77,0 -28.14,2.74 -37.03,8.22 -5.75,3.53 -8.65,8.23 -8.65,14.13 0,5.38 2.72,9.96 8.14,13.76 6.88,4.9 23.6,9.96 50.16,15.24 26.57,5.22 46.19,10.7 58.87,16.29 12.74,5.64 22.71,13.29 29.9,23.04 7.2,9.76 10.79,21.78 10.79,36.06 0,12.97 -4.29,25.15 -12.93,36.49 -8.65,11.34 -20.82,19.77 -36.59,25.26 -15.77,5.54 -35.46,8.28 -58.99,8.28 -34.26,0 -60.57,-6.59 -78.93,-19.82 -18.35,-13.18 -29.27,-32.43 -32.87,-57.68z"/>
  <path id="_15" class="fil2" d="M3936.74 850.14l54.89 0 0 122.74c0,19.51 0.69,32.11 2.02,37.86 2.33,9.28 7.83,16.77 16.53,22.36 8.77,5.64 20.69,8.44 35.84,8.44 15.33,0 26.94,-2.64 34.76,-7.96 7.83,-5.33 12.49,-11.81 14.07,-19.56 1.58,-7.75 2.4,-20.56 2.4,-38.49l0 -125.38 54.89 0 0 119.11c0,27.21 -1.45,46.45 -4.42,57.68 -2.97,11.23 -8.4,20.72 -16.34,28.47 -7.89,7.75 -18.49,13.87 -31.74,18.45 -13.31,4.59 -30.6,6.91 -51.99,6.91 -25.8,0 -45.36,-2.48 -58.68,-7.49 -13.31,-5.01 -23.85,-11.49 -31.61,-19.51 -7.76,-8.01 -12.81,-16.35 -15.27,-25.15 -3.6,-12.97 -5.36,-32.16 -5.36,-57.52l0 -120.95z"/>
  <path id="_16" class="fil2" d="M4210.12 1076.65l0 -226.51 115.27 0c28.96,0 50.03,2.06 63.16,6.12 13.19,4.06 23.66,11.28 31.54,21.67 7.89,10.44 11.86,22.3 11.86,35.7 0,17.03 -5.93,31.05 -17.86,42.13 -11.92,11.08 -29.71,18.03 -53.44,20.93 11.8,5.75 21.51,12.07 29.15,18.98 7.7,6.91 18.04,19.19 31.04,36.8l33.06 44.18 -65.42 0 -39.24 -49.46c-14.07,-17.56 -23.72,-28.63 -28.96,-33.22 -5.18,-4.53 -10.66,-7.7 -16.47,-9.39 -5.87,-1.69 -15.08,-2.53 -27.7,-2.53l-11.1 0 0 94.59 -54.89 0zm54.89 -130.65l40.51 0c26.25,0 42.59,-0.95 49.15,-2.79 6.5,-1.85 11.67,-5.06 15.33,-9.6 3.73,-4.54 5.55,-10.23 5.55,-17.03 0,-7.64 -2.46,-13.76 -7.32,-18.51 -4.86,-4.69 -11.73,-7.64 -20.57,-8.86 -4.48,-0.53 -17.79,-0.79 -39.93,-0.79l-42.71 0 0 57.58z"/>
  <polygon id="_17" class="fil2" points="4483.49,1076.65 4483.49,850.14 4684.12,850.14 4684.12,888.41 4538.38,888.41 4538.38,938.71 4673.9,938.71 4673.9,977 4538.38,977 4538.38,1038.37 4689.42,1038.37 4689.42,1076.65 "/>
 </g>
</svg>
